<svg xmlns="http://www.w3.org/2000/svg" width="1000" height="820" viewBox="0 0 1000 820">
  <style>.page{fill:#f7f7f5}.title{font:700 26px Arial,sans-serif;fill:#111}.subtitle{font:14px Arial,sans-serif;fill:#555}.terminal{fill:#16181d;stroke:#343943;stroke-width:2}.terminal-text{font:12px 'Cascadia Mono','Consolas',monospace;fill:#e7e9ee}.label{font:700 13px Arial,sans-serif;fill:#fff}.blue{fill:#1464c0}.orange{fill:#b45f06}.green{fill:#168a45}</style>
  <rect class="page" width="100%" height="100%"/>
  <text x="28" y="38" class="title">Scenario 7A - Runner TUI locale e Docker</text>
  <text x="28" y="62" class="subtitle">Confronto tra backend, report persistito e verifica dashboard</text>
  <rect x="20" y="92" width="960" height="190" rx="8" class="terminal"/>
  <rect x="36" y="104" width="190" height="24" rx="12" class="blue"/>
  <text x="48" y="121" class="label">1-4 - runner locale</text>
  <text x="38" y="150" class="terminal-text">Backend: local</text>
  <text x="38" y="166" class="terminal-text">Comando: e | Esecuzione completata</text>
  <text x="38" y="182" class="terminal-text">Stato runner: passed | Test: 2/2 test</text>
  <text x="38" y="198" class="terminal-text">Report salvato: latest.json</text>
  <text x="38" y="230" class="terminal-text">Invio - b - q</text>
  <rect x="20" y="300" width="960" height="220" rx="8" class="terminal"/>
  <rect x="36" y="312" width="190" height="24" rx="12" class="orange"/>
  <text x="48" y="329" class="label">5-7 - runner Docker</text>
  <text x="38" y="358" class="terminal-text">Avvio: --backend docker</text>
  <text x="38" y="374" class="terminal-text">Backend: docker</text>
  <text x="38" y="390" class="terminal-text">Stato runner: passed | Test: 2/2 test</text>
  <text x="38" y="406" class="terminal-text">Report salvato e ricaricato dalla TUI</text>
  <text x="38" y="438" class="terminal-text">latest.json: backend=docker</text>
  <text x="38" y="470" class="terminal-text">Docker assente: errore esplicito, nessun falso successo</text>
  <rect x="20" y="538" width="960" height="190" rx="8" class="terminal"/>
  <rect x="36" y="550" width="160" height="24" rx="12" class="green"/>
  <text x="48" y="567" class="label">8 - verifica GUI</text>
  <text x="38" y="596" class="terminal-text">Dashboard studente | rossi-mario</text>
  <text x="38" y="612" class="terminal-text">Test, esito e ultimo tentativo coerenti</text>
  <text x="38" y="628" class="terminal-text">Report Docker letto senza perdere backend</text>
  <text x="38" y="660" class="terminal-text">TUI e dashboard mostrano lo stesso risultato</text>
</svg>
